Coordinates
version=1
nRows=19
nColumns=36
inDegrees=yes

Units are S.I. units (second, meters, Newtons, ...)
If the header above contains a line with 'inDegrees', this indicates whether rotational values are in degrees (yes) or radians (no).

endheader
time	pelvis_tilt	pelvis_list	pelvis_rotation	pelvis_tx	pelvis_ty	pelvis_tz	hip_flexion_r	hip_adduction_r	hip_rotation_r	knee_angle_r	knee_angle_r_beta	ankle_angle_r	subtalar_angle_r	mtp_angle_r	hip_flexion_l	hip_adduction_l	hip_rotation_l	knee_angle_l	knee_angle_l_beta	ankle_angle_l	subtalar_angle_l	mtp_angle_l	lumbar_extension	lumbar_bending	lumbar_rotation	arm_flex_r	arm_add_r	arm_rot_r	elbow_flex_r	pro_sup_r	arm_flex_l	arm_add_l	arm_rot_l	elbow_flex_l	pro_sup_l
      5.30000000	    -29.63139252	      0.79475493	      5.07395147	      0.59478126	      0.83270001	      0.22498970	     77.71175009	    -21.81959655	     -8.16859900	     62.69196347	      1.09418118	     15.94392792	      2.74706322	     -7.49999987	     75.42115927	     -9.71312200	     -4.25103776	     63.23583257	      1.10367348	     23.09671168	     -0.19924697	     -7.49999987	    -32.28804686	      1.03718864	      5.66031555	     92.48365710	     -0.59890829	     71.37905413	    136.37008585	     94.39695320	    100.14895830	     -0.93576991	     56.56824799	    128.49640708	     98.33043916
      5.31666670	    -29.35447584	      0.87901801	      4.77406131	      0.58895129	      0.84497149	      0.22375933	     75.22837233	    -21.16319134	     -8.75753938	     59.72432474	      1.04238611	     15.02014761	      3.25244307	     -7.49999987	     72.95211321	     -9.95360222	     -4.90362975	     60.25718450	      1.05168627	     22.06345224	      0.63319740	     -7.49999987	    -30.92385837	      0.75708329	      5.01950792	     91.69875364	      0.24269357	     70.76223163	    136.88221532	     94.58948241	     99.78695833	     -0.31726028	     56.84420182	    129.46517775	     98.30580202
      5.33333330	    -28.37891989	      1.10689424	      4.35092599	      0.60044474	      0.85923415	      0.22285579	     72.05100476	    -20.49296825	     -9.28299882	     56.74111118	      0.99031921	     14.38697113	      3.72117466	     -7.49999987	     69.66709165	    -10.03293944	     -5.42506244	     57.22406463	      0.99874834	     21.35365763	      1.11069298	     -7.49999987	    -29.98095266	      0.29455511	      4.41858071	     89.73429779	      1.69983083	     69.08074616	    137.15716298	     94.91961008	     98.72132454	      0.01367797	     56.49382829	    131.34357706	     98.19358472
      5.35000000	    -27.40760606	      1.44561686	      3.99854567	      0.59878740	      0.87491996	      0.22319543	     68.95220043	    -19.98543808	     -9.74807246	     53.78825092	      0.93878208	     13.68432962	      4.35649788	     -7.49999987	     66.40751651	     -9.94234041	     -6.02604639	     54.13423959	      0.94482072	     20.45647188	      1.58294386	     -7.49999987	    -29.22193973	      0.02260196	      3.43344101	     87.66699248	      2.56283772	     65.09531431	    136.42037982	    107.94649683	     96.59078085	     -0.96942134	     55.79889570	    133.04226564	     98.26539680
      5.36666670	    -26.00851585	      1.79690721	      3.44385256	      0.61046329	      0.89069821	      0.22328504	     65.16623839	    -19.30408721	    -10.21658565	     50.40796050	      0.87978488	     12.91488248	      5.17094442	     -7.49999987	     62.37064664	     -9.79360823	     -6.48597611	     50.64409215	      0.88390615	     19.36507011	      1.76336091	     -7.49999987	    -28.24849938	     -0.60141731	      2.89426306	     84.14840748	      3.12789368	     63.59766206	    135.35031294	    108.00255803	     93.33850646	     -1.44728051	     54.91405982	    133.44314159	     98.21930904
      5.38333330	    -24.70582930	      2.19200052	      2.82579167	      0.61466701	      0.90181293	      0.22235452	     61.67408072	    -18.60304501	    -10.44618765	     47.14350547	      0.82280939	     12.02582182	      5.77989156	     -7.49999987	     58.45183705	     -9.68412497	     -7.17589361	     47.19741065	      0.82375021	     18.35607417	      2.30315442	     -7.49999987	    -26.93127459	     -1.22490512	      2.10896407	     80.79013862	      4.53542041	     63.74426413	    136.03047224	    108.44783212	     90.79484934	     -1.92255572	     54.13464152	    134.63228376	     98.15222883
      5.40000000	    -23.50506423	      2.55488979	      2.20923526	      0.61903634	      0.91518041	      0.22369573	     58.34279338	    -17.94722395	    -10.71933896	     43.87407703	      0.76574710	     10.99875478	      6.35797936	     -7.49999987	     54.67408051	     -9.57058767	     -7.97427059	     43.72978310	      0.76322870	     17.24857632	      2.88317067	     -7.49999987	    -25.60668693	     -1.87736076	      1.49551391	     78.80084176	      4.78277957	     60.40048698	    136.77707934	    108.64092010	     88.96783472	     -1.56668198	     53.52007743	    135.40461694	     98.03831701
      5.41666670	    -22.27908752	      2.90998208	      1.66164083	      0.62450186	      0.92733104	      0.22821239	     54.83778759	    -17.28732903	    -11.04498709	     40.38680393	      0.70488270	     10.06588101	      7.06610538	     -7.49999987	     50.67056373	     -9.37286839	     -8.84241826	     39.87561344	      0.69596075	     15.78081176	      3.41365244	     -7.49999987	    -24.10349358	     -2.58482935	      0.79710491	     75.94625186	      7.67456166	     63.00332807	    135.77433238	    109.93030315	     86.29886256	     -2.58626481	     53.38682357	    135.42307176	     98.12973516
      5.43333330	    -21.33585658	      3.09791304	      1.13168507	      0.62941319	      0.93352745	      0.22475831	     51.93874299	    -16.59617832	    -11.12390412	     37.30216726	      0.65104564	      8.96851668	      7.73583283	     -7.49999987	     47.32534357	     -9.21323245	     -9.44831752	     36.50322412	      0.63710145	     14.35774175	      3.87620075	     -7.49999987	    -22.01053945	     -3.23831284	      0.37031625	     73.82239834	      9.17668638	     63.42828770	    135.59739670	    110.10036789	     84.05920497	     -2.22252932	     53.49712542	    134.57948495	     98.16468455
      5.45000000	    -19.89760475	      3.38727139	      0.58804468	      0.64508945	      0.94554518	      0.22410527	     48.38490786	    -15.98486140	    -10.91155199	     34.17926751	      0.59654075	      8.32353585	      8.31453887	     -7.49999987	     43.21956436	     -8.72422310	     -9.82482051	     32.81269780	      0.57268961	     13.24278205	      3.91224718	     -7.49999987	    -20.22461442	     -3.75237201	      0.11333623	     70.76039155	      9.79466515	     63.30656300	    135.06906567	    110.32048407	     80.77082212	     -1.91212592	     52.95685062	    133.93125744	     98.27270876
      5.46666670	    -18.52723049	      3.59654790	      0.13638609	      0.65128827	      0.95612032	      0.22687165	     45.29932882	    -15.43841081	    -10.46061099	     31.61962398	      0.55186655	      7.72477983	      8.66776701	     -7.49999987	     39.64654237	     -8.33281893	    -10.18249571	     29.75986719	      0.51940767	     12.32804669	      3.97208978	     -7.49999987	    -18.56110879	     -4.13658042	      0.09248138	     67.71407291	     10.73253632	     62.04394745	    134.83973653	    112.35720928	     77.44334968	     -0.99594615	     52.15982392	    133.97623160	    102.92393655
      5.48333330	    -16.61491810	      3.56192992	     -0.38124155	      0.67560706	      0.97373435	      0.22480703	     40.08484220	    -14.56514559	    -10.83577774	     26.84727543	      0.46857335	      6.74612713	      9.35071480	     -7.49999987	     34.10779695	     -7.79845593	    -10.51438603	     24.44863363	      0.42670915	      9.91865861	      3.78208656	     -7.49999987	    -17.25909209	     -4.21014487	      0.19281659	     62.81994174	     10.24162188	     62.39677689	    134.62457498	    110.52684509	     72.74203894	     -0.43229736	     52.97766458	    133.40807116	    101.14970836
      5.50000000	    -15.19079965	      3.27098121	     -0.77548645	      0.68575740	      0.98113723	      0.22387379	     35.51567135	    -13.47278274	    -10.56458592	     22.35355759	      0.39014318	      5.59226964	      9.33744239	     -7.49999987	     29.24204758	     -7.49685539	    -10.95232797	     19.29808344	      0.33681510	      7.68097180	      4.25172843	     -7.49999987	    -15.39026884	     -4.09215430	      0.56524590	     58.63221711	      9.55518866	     62.40463764	    136.05861346	    111.75790092	     68.66415163	      0.56580985	     53.45678278	    132.80834500	    105.91912015
      5.51666670	    -13.93701249	      2.90093134	     -1.08482141	      0.69508471	      0.98654927	      0.22506348	     31.39597325	    -12.41076126	    -10.04007625	     18.30562192	      0.31949337	      4.41453427	      8.86922044	     -7.49999987	     24.84747917	     -7.35434591	    -11.40402809	     14.70119013	      0.25658417	      6.07527507	      5.00380583	     -7.49999987	    -13.61547617	     -3.91377583	      0.94425264	     55.59836774	      9.09609935	     61.82074494	    136.77622040	    111.34498832	     65.37171631	      1.57760547	     53.80006715	    132.32468857	    103.14594885
      5.53333330	    -13.41484718	      2.56345610	     -1.34190553	      0.69585402	      0.99161739	      0.22427112	     28.92778955	    -11.57202166	     -9.50295343	     15.55802777	      0.27153881	      3.37368072	      8.38681142	     -7.49999987	     22.14590644	     -7.33333978	    -11.37789420	     11.52734960	      0.20119020	      5.19974399	      5.13882640	     -7.49999987	    -11.66381384	     -3.65152810	      1.32777791	     53.74739601	      8.49285929	     61.41926558	    136.90643481	    111.10247597	     62.50051351	      1.84640714	     54.10673482	    132.45746959	    103.53925905
      5.55000000	    -12.47377957	      2.19121361	     -1.46935007	      0.70040567	      0.99267676	      0.22756725	     26.22593479	    -10.72774064	     -8.57107662	     13.14811922	      0.22947797	      2.24979994	      6.79743155	     -7.49999987	     19.29705096	     -7.33699438	    -11.03853720	      8.76192906	      0.15292451	      4.76736529	      5.11154201	     -7.49999987	    -10.49973048	     -3.39268427	      1.86195051	     53.30283890	      8.35188886	     60.19281382	    137.13374434	    110.34942986	     61.07030341	      2.30843346	     53.65167400	    132.61625079	    104.31601728
      5.56666670	    -11.87313658	      1.94784915	     -1.44998426	      0.70070438	      1.00002026	      0.22629903	     24.29064877	    -10.19790296	     -7.86899946	     11.33981882	      0.19791718	      1.37234273	      5.53990815	     -7.49999987	     17.35108829	     -7.28895103	    -10.59362126	      6.77012767	      0.11816102	      4.45995035	      4.79892545	     -7.49999987	     -9.37593075	     -3.08265627	      2.22122982	     53.19824115	      8.39422971	     59.99918215	    136.78978730	    107.69657490	     59.96268041	      2.78274671	     52.83175962	    133.10018002	    106.55956810
      5.58333330	    -11.33972605	      1.73522494	     -1.36067521	      0.71001210	      1.00589764	      0.22710738	     22.14698129	     -9.71748167	     -7.52903246	      9.11194401	      0.15903342	      0.60087766	      4.89474710	     -7.49999987	     15.33952271	     -7.16140594	    -10.11897372	      4.73039332	      0.08256094	      4.16056514	      4.83396662	     -7.49999987	     -8.09561397	     -2.87871989	      2.48169143	     52.46099720	      8.05849696	     59.76775258	    136.24949823	    107.55961726	     58.70402374	      3.14263656	     53.00034393	    133.29845140	    106.55089758
      5.60000000	    -10.32579124	      1.51509059	     -1.15553792	      0.70998968	      1.00636318	      0.22613672	     19.75249196	     -9.27285123	     -6.62377264	      7.16276118	      0.12501377	     -0.34902350	      3.12769837	     -7.49999987	     13.22895257	     -7.09035601	     -9.34491944	      3.24257211	      0.05659356	      4.16114237	      4.40016237	     -7.49999987	     -7.76488353	     -2.53578236	      2.37170679	     52.55000545	      8.19483348	     59.54052960	    135.75635576	    107.22536156	     58.39562299	      3.51764270	     51.72195765	    132.82156882	    106.43534703
